# xmcd CD database file
#
# Track frame offsets:
#	193
#	15048
#	31405
#	45108
#	63213
#	77218
#	91663
#	104578
#	117148
#	131618
#	145938
#	162130
#	175423
#	189350
#	205513
#	219748
#
# Disc length: 3106 seconds
#
# Revision: 3
# Processed by: cddbd v1.5.2PL0 Copyright (c) Steve Scherf et al.
# Submitted via: CDex 1.78
#
DISCID=c50c2010
DTITLE=Die Flippers - Melodie D Amour
DYEAR=1900
DGENRE=Country
TTITLE0=Good Bye Eloisa
TTITLE1=Angie
TTITLE2=Sie War Ein Kind Der Sonne
TTITLE3=Septemberwind
TTITLE4=Melodie D Amour
TTITLE5=Stern Von San Fernando
TTITLE6=Tr Nen, Die Der Wind Verweht
TTITLE7=Bella Bianca
TTITLE8=Sommertr Ume
TTITLE9=Weisse Taube, Paloma
TTITLE10=Moonlight Lady
TTITLE11=Der Himmel Hat Dich F R Mich Erdacht
TTITLE12=Fernandos Traum
TTITLE13=Wenn Dein Herz Friert
TTITLE14=Schuld War Die Sommernacht Auf Hawaii
TTITLE15=San Marino Bei Nacht
EXTD=
EXTT0=
EXTT1=
EXTT2=
EXTT3=
EXTT4=
EXTT5=
EXTT6=
EXTT7=
EXTT8=
EXTT9=
EXTT10=
EXTT11=
EXTT12=
EXTT13=
EXTT14=
EXTT15=
PLAYORDER=
